The ABCs Of Death 2012 HDRiP AC3-2 0 XviD-AXED

IMDB:  
http://www.imdb.com/title/tt1935896/

PLOT INFO:
A 26-chapter anthology that showcases death in all its vicious wonder and brutal beauty. 

MEDIAINFO:
General
Complete name                            : The.ABCs.Of.Death.2012.HDRiP.AC3-2.0.XviD-AXED.avi
Format                                   : AVI
Format/Info                              : Audio Video Interleave
File size                                : 1.37 GiB
Duration                                 : 2h 9mn
Overall bit rate                         : 1 516 Kbps

Video
ID                                       : 0
Format                                   : MPEG-4 Visual
Format profile                           : Advanced Simple@L5
Format settings, BVOP                    : 2
Format settings, QPel                    : No
Format settings, GMC                     : No warppoints
Format settings, Matrix                  : Default (H.263)
Muxing mode                              : Packed bitstream
Codec ID                                 : XVID
Codec ID/Hint                            : XviD
Duration                                 : 2h 9mn
Bit rate                                 : 1 316 Kbps
Width                                    : 720 pixels
Height                                   : 400 pixels
Display aspect ratio                     : 16:9
Frame rate                               : 23.976 fps
Color space                              : YUV
Chroma subsampling                       : 4:2:0
Bit depth                                : 8 bits
Scan type                                : Progressive
Compression mode                         : Lossy
Bits/(Pixel*Frame)                       : 0.191
Stream size                              : 1.19 GiB (87%)
Writing library                          : XviD 64

Audio
ID                                       : 1
Format                                   : AC-3
Format/Info                              : Audio Coding 3
Mode extension                           : CM (complete main)
Format settings, Endianness              : Big
Codec ID                                 : 2000
Duration                                 : 2h 9mn
Bit rate mode                            : Constant
Bit rate                                 : 192 Kbps
Channel(s)                               : 2 channels
Channel positions                        : Front: L R
Sampling rate                            : 48.0 KHz
Bit depth                                : 16 bits
Compression mode                         : Lossy
Stream size                              : 178 MiB (13%)
Alignment                                : Aligned on interleaves
Interleave, duration                     : 64 ms (1.53 video frames)
Interleave, preload duration             : 192 ms
Title                                    : abcsofdeath


SOURCE: 
720p wmv Digital VOD Rental

NOTES: 
Enjoy this new horror Anthology film with 26 short films about death from 
directors around the world chronicling death by chosen letters of the alphabet. Hard Coded English subs are included for Foreign segments.

AXED! - The only name to trust for VOD/HDRiP!


Poster:

 
http://i.imgur.com/qFI9I3u.jpg


Screenshots:

 
http://i.imgur.com/3ZSlEma.png

 
http://i.imgur.com/eV4HDjL.png

 
http://i.imgur.com/8G40xKT.png


SEED AND ENJOY!